{
  "accessors": [
    {
      "bufferView": 2,
      "componentType": 5126,
      "count": 65532,
      "max": [
        123.41136169433594,
        61.4970703125,
        182.92408752441406
      ],
      "min": [
        -39.421226501464844,
        -83.340591430664062,
        31.024093627929688
      ],
      "type": "VEC3"
    },
    {
      "bufferView": 2,
      "byteOffset": 786384,
      "componentType": 5126,
      "count": 65532,
      "max": [
        1,
        1,
        1
      ],
      "min": [
        -0.99985760450363159,
        -0.86830806732177734,
        -1
      ],
      "type": "VEC3"
    },
    {
      "bufferView": 3,
      "componentType": 5126,
      "count": 65532,
      "max": [
        0.9805675745010376,
        0.99999487400054932,
        0.95575052499771118,
        1
      ],
      "min": [
        -0.99999457597732544,
        -0.79442191123962402,
        -0.99540388584136963,
        1
      ],
      "type": "VEC4"
    },
    {
      "bufferView": 1,
      "componentType": 5126,
      "count": 65532,
      "max": [
        0.86645066738128662,
        0.98964828252792358
      ],
      "min": [
        0.010351722128689289,
        0.46234440803527832
      ],
      "type": "VEC2"
    },
    {
      "bufferView": 0,
      "componentType": 5125,
      "count": 377982,
      "max": [
        65531
      ],
      "min": [
        0
      ],
      "type": "SCALAR"
    },
    {
      "bufferView": 2,
      "byteOffset": 1572768,
      "componentType": 5126,
      "count": 65532,
      "max": [
        127.53477478027344,
        86.05938720703125,
        172.60102844238281
      ],
      "min": [
        -39.156013488769531,
        -101.87945556640625,
        -22.875900268554688
      ],
      "type": "VEC3"
    },
    {
      "bufferView": 2,
      "byteOffset": 2359152,
      "componentType": 5126,
      "count": 65532,
      "max": [
        0.98523783683776855,
        0.99998396635055542,
        0.99999558925628662
      ],
      "min": [
        -0.99994969367980957,
        -0.99994617700576782,
        -1
      ],
      "type": "VEC3"
    },
    {
      "bufferView": 3,
      "byteOffset": 1048512,
      "componentType": 5126,
      "count": 65532,
      "max": [
        0.99440467357635498,
        0.99997740983963013,
        0.99987906217575073,
        1
      ],
      "min": [
        -0.89668864011764526,
        -0.66373133659362793,
        -0.99994713068008423,
        1
      ],
      "type": "VEC4"
    },
    {
      "bufferView": 1,
      "byteOffset": 524256,
      "componentType": 5126,
      "count": 65532,
      "max": [
        0.96528148651123047,
        0.98964828252792358
      ],
      "min": [
        0.26751828193664551,
        0.42938172817230225
      ],
      "type": "VEC2"
    },
    {
      "bufferView": 0,
      "byteOffset": 1511928,
      "componentType": 5125,
      "count": 354663,
      "max": [
        65531
      ],
      "min": [
        0
      ],
      "type": "SCALAR"
    },
    {
      "bufferView": 2,
      "byteOffset": 3145536,
      "componentType": 5126,
      "count": 65532,
      "max": [
        129.43766784667969,
        86.07220458984375,
        49.224090576171875
      ],
      "min": [
        3.144989013671875,
        -35.040603637695312,
        -49.036369323730469
      ],
      "type": "VEC3"
    },
    {
      "bufferView": 2,
      "byteOffset": 3931920,
      "componentType": 5126,
      "count": 65532,
      "max": [
        0.99431067705154419,
        0.9999927282333374,
        1
      ],
      "min": [
        -0.99999994039535522,
        -0.94309604167938232,
        -0.99998289346694946
      ],
      "type": "VEC3"
    },
    {
      "bufferView": 3,
      "byteOffset": 2097024,
      "componentType": 5126,
      "count": 65532,
      "max": [
        0.98529922962188721,
        0.99997740983963013,
        0.99991756677627563,
        1
      ],
      "min": [
        -0.916645348072052,
        -0.9563785195350647,
        -0.99997282028198242,
        1
      ],
      "type": "VEC4"
    },
    {
      "bufferView": 1,
      "byteOffset": 1048512,
      "componentType": 5126,
      "count": 65532,
      "max": [
        0.56933718919754028,
        0.84472417831420898
      ],
      "min": [
        0.020703444257378578,
        0.05298691987991333
      ],
      "type": "VEC2"
    },
    {
      "bufferView": 0,
      "byteOffset": 2930580,
      "componentType": 5125,
      "count": 350412,
      "max": [
        65531
      ],
      "min": [
        0
      ],
      "type": "SCALAR"
    },
    {
      "bufferView": 2,
      "byteOffset": 4718304,
      "componentType": 5126,
      "count": 65532,
      "max": [
        130.18641662597656,
        60.270408630371094,
        187.24974060058594
      ],
      "min": [
        -39.145591735839844,
        -79.140594482421875,
        -48.775901794433594
      ],
      "type": "VEC3"
    },
    {
      "bufferView": 2,
      "byteOffset": 5504688,
      "componentType": 5126,
      "count": 65532,
      "max": [
        0.99999570846557617,
        0.99992316961288452,
        0.99998581409454346
      ],
      "min": [
        -0.99996477365493774,
        -1,
        -0.99971407651901245
      ],
      "type": "VEC3"
    },
    {
      "bufferView": 3,
      "byteOffset": 3145536,
      "componentType": 5126,
      "count": 65532,
      "max": [
        0.98963135480880737,
        0.99999809265136719,
        0.99871200323104858,
        1
      ],
      "min": [
        -0.99509412050247192,
        -0.91259723901748657,
        -0.98629629611968994,
        1
      ],
      "type": "VEC4"
    },
    {
      "bufferView": 1,
      "byteOffset": 1572768,
      "componentType": 5126,
      "count": 65532,
      "max": [
        0.94616693258285522,
        0.76191037893295288
      ],
      "min": [
        0.023120339959859848,
        0.0072483420372009277
      ],
      "type": "VEC2"
    },
    {
      "bufferView": 0,
      "byteOffset": 4332228,
      "componentType": 5125,
      "count": 361044,
      "max": [
        65531
      ],
      "min": [
        0
      ],
      "type": "SCALAR"
    },
    {
      "bufferView": 2,
      "byteOffset": 6291072,
      "componentType": 5126,
      "count": 21908,
      "max": [
        123.41136169433594,
        57.865081787109375,
        187.17887878417969
      ],
      "min": [
        -39.327911376953125,
        -102.48239135742188,
        104.98945617675781
      ],
      "type": "VEC3"
    },
    {
      "bufferView": 2,
      "byteOffset": 6553968,
      "componentType": 5126,
      "count": 21908,
      "max": [
        1,
        0.81097573041915894,
        0.99988663196563721
      ],
      "min": [
        -0.9994271993637085,
        -0.99866938591003418,
        -0.9999966025352478
      ],
      "type": "VEC3"
    },
    {
      "bufferView": 3,
      "byteOffset": 4194048,
      "componentType": 5126,
      "count": 21908,
      "max": [
        0.98761451244354248,
        0.98293155431747437,
        0.99998021125793457,
        1
      ],
      "min": [
        -0.99998348951339722,
        -0.99998641014099121,
        -0.99945002794265747,
        -1
      ],
      "type": "VEC4"
    },
    {
      "bufferView": 1,
      "byteOffset": 2097024,
      "componentType": 5126,
      "count": 21908,
      "max": [
        0.92470645904541016,
        0.92753791809082031
      ],
      "min": [
        0.010351721197366714,
        0.010341346263885498
      ],
      "type": "VEC2"
    },
    {
      "bufferView": 0,
      "byteOffset": 5776404,
      "componentType": 5125,
      "count": 114237,
      "max": [
        21907
      ],
      "min": [
        0
      ],
      "type": "SCALAR"
    }
  ],
  "asset": {
    "extras": {
      "author": "DELSCAN (https://sketchfab.com/bhartwig)",
      "license": "CC-BY-4.0 (http://creativecommons.org/licenses/by/4.0/)",
      "source": "https://sketchfab.com/models/b2d4465300d24dbe9d8a44d79476bff1",
      "title": "Ryobi Drill"
    },
    "generator": "Sketchfab-3.18.7",
    "version": "2.0"
  },
  "bufferViews": [
    {
      "buffer": 0,
      "byteLength": 6233352,
      "byteOffset": 0,
      "name": "floatBufferViews",
      "target": 34963
    },
    {
      "buffer": 0,
      "byteLength": 2272288,
      "byteOffset": 6233352,
      "byteStride": 8,
      "name": "floatBufferViews",
      "target": 34962
    },
    {
      "buffer": 0,
      "byteLength": 6816864,
      "byteOffset": 8505640,
      "byteStride": 12,
      "name": "floatBufferViews",
      "target": 34962
    },
    {
      "buffer": 0,
      "byteLength": 4544576,
      "byteOffset": 15322504,
      "byteStride": 16,
      "name": "floatBufferViews",
      "target": 34962
    }
  ],
  "buffers": [
    {
      "byteLength": 19867080,
      "uri": "scene.bin"
    }
  ],
  "images": [
    {
      "uri": "textures/material_0_baseColor.jpeg"
    }
  ],
  "materials": [
    {
      "doubleSided": true,
      "emissiveFactor": [
        0,
        0,
        0
      ],
      "name": "material_0",
      "pbrMetallicRoughness": {
        "baseColorFactor": [
          1,
          1,
          1,
          1
        ],
        "baseColorTexture": {
          "index": 0,
          "texCoord": 0
        },
        "metallicFactor": 0,
        "roughnessFactor": 0.59999999999999998
      }
    }
  ],
  "meshes": [
    {
      "primitives": [
        {
          "attributes": {
            "NORMAL": 1,
            "POSITION": 0,
            "TANGENT": 2,
            "TEXCOORD_0": 3
          },
          "indices": 4,
          "material": 0,
          "mode": 4
        }
      ]
    },
    {
      "primitives": [
        {
          "attributes": {
            "NORMAL": 6,
            "POSITION": 5,
            "TANGENT": 7,
            "TEXCOORD_0": 8
          },
          "indices": 9,
          "material": 0,
          "mode": 4
        }
      ]
    },
    {
      "primitives": [
        {
          "attributes": {
            "NORMAL": 11,
            "POSITION": 10,
            "TANGENT": 12,
            "TEXCOORD_0": 13
          },
          "indices": 14,
          "material": 0,
          "mode": 4
        }
      ]
    },
    {
      "primitives": [
        {
          "attributes": {
            "NORMAL": 16,
            "POSITION": 15,
            "TANGENT": 17,
            "TEXCOORD_0": 18
          },
          "indices": 19,
          "material": 0,
          "mode": 4
        }
      ]
    },
    {
      "primitives": [
        {
          "attributes": {
            "NORMAL": 21,
            "POSITION": 20,
            "TANGENT": 22,
            "TEXCOORD_0": 23
          },
          "indices": 24,
          "material": 0,
          "mode": 4
        }
      ]
    }
  ],
  "nodes": [
    {
      "children": [
        1
      ],
      "name": "RootNode (gltf orientation matrix)",
      "rotation": [
        -0.70710678118654746,
        -0,
        -0,
        0.70710678118654757
      ]
    },
    {
      "children": [
        2
      ],
      "name": "RootNode (model correction matrix)"
    },
    {
      "children": [
        3,
        4,
        5,
        6,
        7
      ],
      "name": "Ryobii Drill.obj.cleaner.gles"
    },
    {
      "mesh": 0,
      "name": ""
    },
    {
      "mesh": 1,
      "name": ""
    },
    {
      "mesh": 2,
      "name": ""
    },
    {
      "mesh": 3,
      "name": ""
    },
    {
      "mesh": 4,
      "name": ""
    }
  ],
  "samplers": [
    {
      "magFilter": 9729,
      "minFilter": 9987,
      "wrapS": 10497,
      "wrapT": 10497
    }
  ],
  "scene": 0,
  "scenes": [
    {
      "name": "OSG_Scene",
      "nodes": [
        0
      ]
    }
  ],
  "textures": [
    {
      "sampler": 0,
      "source": 0
    }
  ]
}

